<svg width="20" height="20" viewBox="0 0 20 20" fill="none" xmlns="http://www.w3.org/2000/svg">
<path fill-rule="evenodd" clip-rule="evenodd" d="M6.22083 0.888343C7.19833 0.843343 7.51 0.833344 10 0.833344C12.49 0.833344 12.8017 0.844177 13.7783 0.888343C14.755 0.93251 15.4217 1.08834 16.005 1.31418C16.6158 1.54501 17.17 1.90584 17.6283 2.37251C18.095 2.83001 18.455 3.38334 18.685 3.99501C18.9117 4.57834 19.0667 5.24501 19.1117 6.22001C19.1567 7.19918 19.1667 7.51084 19.1667 10C19.1667 12.49 19.1558 12.8017 19.1117 13.7792C19.0675 14.7542 18.9117 15.4208 18.685 16.0042C18.455 16.6159 18.0944 17.1702 17.6283 17.6283C17.17 18.095 16.6158 18.455 16.005 18.685C15.4217 18.9117 14.755 19.0667 13.78 19.1117C12.8017 19.1567 12.49 19.1667 10 19.1667C7.51 19.1667 7.19833 19.1558 6.22083 19.1117C5.24583 19.0675 4.57917 18.9117 3.99583 18.685C3.3841 18.455 2.82985 18.0944 2.37167 17.6283C1.90532 17.1706 1.54443 16.6166 1.31417 16.005C1.08833 15.4217 0.933332 14.755 0.888332 13.78C0.843332 12.8008 0.833332 12.4892 0.833332 10C0.833332 7.51001 0.844165 7.19834 0.888332 6.22168C0.932499 5.24501 1.08833 4.57834 1.31417 3.99501C1.54477 3.38341 1.90593 2.82944 2.3725 2.37168C2.83003 1.90543 3.38373 1.54455 3.995 1.31418C4.57833 1.08834 5.245 0.933343 6.22 0.888343H6.22083ZM13.7042 2.53834C12.7375 2.49418 12.4475 2.48501 10 2.48501C7.5525 2.48501 7.2625 2.49418 6.29583 2.53834C5.40166 2.57918 4.91667 2.72834 4.59333 2.85418C4.16583 3.02084 3.86 3.21834 3.53917 3.53918C3.23504 3.83505 3.00098 4.19525 2.85417 4.59334C2.72833 4.91668 2.57917 5.40168 2.53833 6.29584C2.49417 7.26251 2.485 7.55251 2.485 10C2.485 12.4475 2.49417 12.7375 2.53833 13.7042C2.57917 14.5983 2.72833 15.0833 2.85417 15.4067C3.00083 15.8042 3.235 16.165 3.53917 16.4608C3.835 16.765 4.19583 16.9992 4.59333 17.1458C4.91667 17.2717 5.40166 17.4208 6.29583 17.4617C7.2625 17.5058 7.55166 17.515 10 17.515C12.4483 17.515 12.7375 17.5058 13.7042 17.4617C14.5983 17.4208 15.0833 17.2717 15.4067 17.1458C15.8342 16.9792 16.14 16.7817 16.4608 16.4608C16.765 16.165 16.9992 15.8042 17.1458 15.4067C17.2717 15.0833 17.4208 14.5983 17.4617 13.7042C17.5058 12.7375 17.515 12.4475 17.515 10C17.515 7.55251 17.5058 7.26251 17.4617 6.29584C17.4208 5.40168 17.2717 4.91668 17.1458 4.59334C16.9792 4.16584 16.7817 3.86001 16.4608 3.53918C16.1649 3.23507 15.8048 3.00102 15.4067 2.85418C15.0833 2.72834 14.5983 2.57918 13.7042 2.53834V2.53834ZM8.82916 12.8258C9.48305 13.098 10.2111 13.1348 10.8891 12.9298C11.5671 12.7248 12.1528 12.2908 12.5463 11.7019C12.9399 11.113 13.1167 10.4057 13.0467 9.70093C12.9767 8.99613 12.6642 8.33749 12.1625 7.83751C11.8427 7.51791 11.456 7.27319 11.0303 7.12097C10.6045 6.96874 10.1504 6.91281 9.70041 6.95719C9.25047 7.00157 8.81596 7.14516 8.42817 7.37762C8.04038 7.61008 7.70895 7.92563 7.45775 8.30155C7.20655 8.67747 7.04182 9.10442 6.97543 9.55164C6.90903 9.99887 6.94262 10.4553 7.07378 10.8879C7.20494 11.3206 7.4304 11.7189 7.73393 12.0539C8.03746 12.389 8.41152 12.6527 8.82916 12.8258ZM6.66833 6.66834C7.10585 6.23082 7.62526 5.88376 8.19691 5.64698C8.76856 5.41019 9.38125 5.28832 10 5.28832C10.6187 5.28832 11.2314 5.41019 11.8031 5.64698C12.3747 5.88376 12.8941 6.23082 13.3317 6.66834C13.7692 7.10586 14.1162 7.62528 14.353 8.19692C14.5898 8.76857 14.7117 9.38126 14.7117 10C14.7117 10.6188 14.5898 11.2314 14.353 11.8031C14.1162 12.3747 13.7692 12.8942 13.3317 13.3317C12.4481 14.2153 11.2496 14.7117 10 14.7117C8.75038 14.7117 7.55194 14.2153 6.66833 13.3317C5.78472 12.4481 5.28831 11.2496 5.28831 10C5.28831 8.75039 5.78472 7.55196 6.66833 6.66834V6.66834ZM15.7567 5.99001C15.8651 5.88773 15.9519 5.76474 16.0119 5.62832C16.072 5.4919 16.104 5.34482 16.1062 5.19578C16.1084 5.04675 16.0806 4.8988 16.0246 4.76068C15.9685 4.62257 15.8854 4.4971 15.78 4.39171C15.6746 4.28632 15.5491 4.20314 15.411 4.14711C15.2729 4.09107 15.1249 4.06332 14.9759 4.0655C14.8269 4.06767 14.6798 4.09972 14.5434 4.15976C14.4069 4.21979 14.2839 4.30659 14.1817 4.41501C13.9828 4.62587 13.8739 4.90594 13.8781 5.19578C13.8823 5.48563 13.9993 5.76241 14.2043 5.96738C14.4093 6.17235 14.686 6.28937 14.9759 6.29359C15.2657 6.29782 15.5458 6.18892 15.7567 5.99001V5.99001Z" fill="#F34C93"/>
</svg>
