<svg width="20" height="20" viewBox="0 0 20 20" fill="none" xmlns="http://www.w3.org/2000/svg">
<rect width="20" height="20" fill="black"/>
<path d="M0 0V20H20V0H0ZM10.8843 15.5979C10.8843 17.5443 9.74143 18.4329 8.07643 18.4329C6.57214 18.4329 5.70143 17.6564 5.255 16.7143L6.78643 15.79C7.08143 16.3121 7.34929 16.7543 7.99643 16.7543C8.61214 16.7543 9.005 16.5129 9.005 15.5714V9.18286H10.8843V15.5979ZM15.33 18.4329C13.5843 18.4329 12.455 17.6029 11.9057 16.5129L13.4371 15.6293C13.8393 16.2857 14.3657 16.7721 15.29 16.7721C16.0664 16.7721 16.5671 16.3836 16.5671 15.8436C16.5671 15.2007 16.0579 14.9729 15.1964 14.5936L14.7279 14.3929C13.3707 13.8171 12.4736 13.0893 12.4736 11.5579C12.4736 10.1471 13.5493 9.07571 15.2236 9.07571C16.42 9.07571 17.2771 9.49071 17.8936 10.58L16.4293 11.5179C16.1079 10.9421 15.7593 10.7143 15.2193 10.7143C14.6707 10.7143 14.3221 11.0629 14.3221 11.5179C14.3221 12.0807 14.6707 12.3079 15.4786 12.6607L15.9471 12.8614C17.5457 13.5443 18.4429 14.2457 18.4429 15.8164C18.4429 17.5043 17.1121 18.4321 15.3307 18.4321L15.33 18.4329Z" fill="#EFD81D"/>
</svg>
