<svg width="20" height="20" viewBox="0 0 20 20" fill="none" xmlns="http://www.w3.org/2000/svg">
<g clip-path="url(#clip0)">
<path d="M9.91584 20C9.64751 20 9.38251 19.93 9.14667 19.7941L6.70084 18.3458C6.33501 18.1416 6.51334 18.0691 6.63417 18.0275C7.12084 17.8575 7.22001 17.8191 7.74001 17.5233C7.79501 17.4925 7.86667 17.5033 7.92251 17.5358L9.80167 18.6516C9.83685 18.6698 9.87585 18.6792 9.91542 18.6792C9.955 18.6792 9.99399 18.6698 10.0292 18.6516L17.3575 14.4208C17.3915 14.4003 17.4197 14.3713 17.4393 14.3367C17.4588 14.3021 17.4691 14.2631 17.4692 14.2233V5.76581C17.4693 5.72528 17.4589 5.68541 17.439 5.65007C17.4192 5.61473 17.3905 5.58513 17.3558 5.56415L10.0308 1.33748C9.99654 1.31758 9.95758 1.3071 9.91792 1.3071C9.87826 1.3071 9.83931 1.31758 9.80501 1.33748L2.48001 5.56415C2.44499 5.58455 2.4159 5.61373 2.39559 5.6488C2.37528 5.68387 2.36445 5.72362 2.36417 5.76415V14.2208C2.36417 14.3016 2.40834 14.3791 2.47834 14.4175L4.48501 15.5766C5.57501 16.1216 6.24084 15.48 6.24084 14.8341V6.48748C6.24038 6.45949 6.24558 6.43169 6.25611 6.40575C6.26664 6.37981 6.28229 6.35626 6.30212 6.3365C6.32196 6.31675 6.34557 6.30119 6.37155 6.29076C6.39753 6.28033 6.42535 6.27525 6.45334 6.27581H7.38167C7.49751 6.27581 7.59251 6.36748 7.59251 6.48748V14.8375C7.59251 16.2908 6.80084 17.125 5.42251 17.125C4.99834 17.125 4.66417 17.125 3.73251 16.6666L1.81001 15.5583C1.57633 15.4218 1.38245 15.2266 1.24765 14.9919C1.11285 14.7573 1.04184 14.4914 1.04167 14.2208V5.76415C1.04167 5.21415 1.33501 4.69998 1.81001 4.42915L9.14667 0.196648C9.38294 0.0675462 9.64785 -0.000112534 9.91709 -0.000112534C10.1863 -0.000112534 10.4512 0.0675462 10.6875 0.196648L18.0142 4.42998C18.4875 4.70415 18.7825 5.21581 18.7825 5.76581V14.2233C18.7819 14.4935 18.7107 14.7588 18.5759 14.993C18.4411 15.2272 18.2475 15.4221 18.0142 15.5583L10.6875 19.7908C10.4525 19.9259 10.1861 19.9967 9.91501 19.9958V20H9.91584ZM12.1792 14.1725C8.97251 14.1725 8.30084 12.7008 8.30084 11.4658C8.30084 11.3491 8.39501 11.255 8.51251 11.255H9.45917C9.56417 11.255 9.65167 11.3308 9.66834 11.4341C9.81167 12.3991 10.2375 12.8858 12.1767 12.8858C13.7208 12.8858 14.3775 12.5366 14.3775 11.7175C14.3775 11.2458 14.19 10.8958 11.7908 10.6608C9.78417 10.4625 8.54417 10.0208 8.54417 8.41581C8.54417 6.93665 9.79167 6.05665 11.8808 6.05665C14.2267 6.05665 15.39 6.87081 15.5367 8.62081C15.5392 8.65026 15.5356 8.67992 15.5261 8.7079C15.5166 8.73588 15.5013 8.76157 15.4813 8.78335C15.4614 8.80513 15.4371 8.82253 15.41 8.83443C15.383 8.84633 15.3537 8.85248 15.3242 8.85248H14.3717C14.3237 8.85241 14.2772 8.83592 14.2399 8.80575C14.2026 8.77558 14.1768 8.73355 14.1667 8.68665C13.9375 7.67248 13.3833 7.34748 11.8775 7.34748C10.1917 7.34748 9.99501 7.93498 9.99501 8.37498C9.99501 8.90831 10.2258 9.06498 12.5008 9.36581C14.7533 9.66498 15.8233 10.0866 15.8233 11.67C15.8233 13.2658 14.4908 14.1816 12.1692 14.1816L12.1792 14.1733V14.1725Z" fill="#76AD64"/>
</g>
<defs>
<clipPath id="clip0">
<rect width="20" height="20" fill="white"/>
</clipPath>
</defs>
</svg>
