<svg width="21" height="20" viewBox="0 0 21 20" fill="none" xmlns="http://www.w3.org/2000/svg">
<g clip-path="url(#clip0)">
<path d="M9.95421 0.00564575C4.86934 0.00564575 5.18683 2.21074 5.18683 2.21074L5.19248 4.49529H10.0449V5.18117H3.26519C3.26519 5.18117 0.0113831 4.81215 0.0113831 9.94274C0.0113831 15.0735 2.85138 14.8915 2.85138 14.8915H4.54629V12.5107C4.54629 12.5107 4.45491 9.67066 7.34095 9.67066H12.1537C12.1537 9.67066 14.8576 9.71435 14.8576 7.05741V2.66431C14.8576 2.66431 15.2682 0.00564575 9.95421 0.00564575ZM7.2786 1.54196C7.39326 1.54186 7.50682 1.56436 7.61278 1.6082C7.71874 1.65203 7.81501 1.71633 7.89609 1.79741C7.97717 1.87849 8.04147 1.97476 8.0853 2.08072C8.12913 2.18667 8.15164 2.30023 8.15154 2.4149C8.15164 2.52956 8.12913 2.64312 8.0853 2.74908C8.04147 2.85504 7.97717 2.95131 7.89609 3.03239C7.81501 3.11347 7.71874 3.17777 7.61278 3.2216C7.50682 3.26543 7.39326 3.28794 7.2786 3.28784C7.16393 3.28794 7.05037 3.26543 6.94442 3.2216C6.83846 3.17777 6.74219 3.11347 6.66111 3.03239C6.58003 2.95131 6.51573 2.85504 6.4719 2.74908C6.42806 2.64312 6.40555 2.52956 6.40566 2.4149C6.40555 2.30023 6.42806 2.18667 6.4719 2.08072C6.51573 1.97476 6.58003 1.87849 6.66111 1.79741C6.74219 1.71633 6.83846 1.65203 6.94442 1.6082C7.05037 1.56436 7.16393 1.54186 7.2786 1.54196V1.54196Z" fill="url(#paint0_linear)"/>
<path d="M10.0986 19.9314C15.1834 19.9314 14.866 17.7263 14.866 17.7263L14.8603 15.4419H10.0078V14.756H16.7875C16.7875 14.756 20.0413 15.125 20.0413 9.99427C20.0413 4.86361 17.2013 5.04557 17.2013 5.04557H15.5064V7.42635C15.5064 7.42635 15.5978 10.2663 12.7118 10.2663H7.89905C7.89905 10.2663 5.19513 10.2227 5.19513 12.8797V17.2729C5.19513 17.2729 4.78454 19.9314 10.0985 19.9314H10.0986ZM12.7742 18.3953C12.6595 18.3954 12.546 18.3729 12.44 18.329C12.3341 18.2852 12.2378 18.2209 12.1567 18.1398C12.0756 18.0588 12.0113 17.9625 11.9675 17.8565C11.9237 17.7506 11.9011 17.637 11.9012 17.5223C11.9011 17.4077 11.9236 17.2941 11.9675 17.1881C12.0113 17.0822 12.0756 16.9859 12.1567 16.9048C12.2378 16.8237 12.334 16.7594 12.44 16.7156C12.546 16.6717 12.6595 16.6492 12.7742 16.6493C12.8889 16.6492 13.0024 16.6717 13.1084 16.7156C13.2143 16.7594 13.3106 16.8237 13.3917 16.9048C13.4728 16.9859 13.5371 17.0821 13.5809 17.1881C13.6247 17.294 13.6472 17.4076 13.6471 17.5223C13.6472 17.6369 13.6247 17.7505 13.5809 17.8564C13.5371 17.9624 13.4728 18.0587 13.3917 18.1398C13.3106 18.2208 13.2143 18.2851 13.1084 18.329C13.0024 18.3728 12.8889 18.3953 12.7742 18.3952V18.3953Z" fill="url(#paint1_linear)"/>
</g>
<defs>
<linearGradient id="paint0_linear" x1="1.93626" y1="1.79785" x2="11.8625" y2="11.6251" gradientUnits="userSpaceOnUse">
<stop stop-color="#387EB8"/>
<stop offset="1" stop-color="#366994"/>
</linearGradient>
<linearGradient id="paint1_linear" x1="8.02896" y1="8.1083" x2="18.6886" y2="18.1852" gradientUnits="userSpaceOnUse">
<stop stop-color="#FFE052"/>
<stop offset="1" stop-color="#FFC331"/>
</linearGradient>
<clipPath id="clip0">
<rect width="20.0784" height="20" fill="white"/>
</clipPath>
</defs>
</svg>
