<svg width="20" height="20" viewBox="0 0 20 20" fill="none" xmlns="http://www.w3.org/2000/svg">
<path d="M19.7025 4.11418C19.0067 4.42251 18.2592 4.63085 17.4733 4.72501C18.2842 4.23984 18.8908 3.47624 19.18 2.57668C18.4182 3.02917 17.5845 3.34768 16.715 3.51835C16.1303 2.89407 15.3559 2.48029 14.5119 2.34124C13.668 2.2022 12.8017 2.34567 12.0477 2.74939C11.2936 3.15311 10.694 3.79448 10.3418 4.57393C9.98961 5.35338 9.90461 6.22731 10.1 7.06001C8.55641 6.98251 7.04636 6.5813 5.66785 5.88243C4.28935 5.18356 3.0732 4.20265 2.09833 3.00335C1.765 3.57835 1.57333 4.24501 1.57333 4.95501C1.57296 5.59418 1.73036 6.22355 2.03157 6.78729C2.33277 7.35103 2.76847 7.83171 3.3 8.18668C2.68356 8.16707 2.08073 8.0005 1.54167 7.70085V7.75085C1.54161 8.6473 1.85169 9.51616 2.41932 10.21C2.98695 10.9039 3.77714 11.38 4.65583 11.5575C4.08399 11.7123 3.48445 11.7351 2.9025 11.6242C3.15042 12.3955 3.63333 13.07 4.28364 13.5533C4.93395 14.0365 5.7191 14.3043 6.52917 14.3192C5.15403 15.3987 3.45574 15.9843 1.7075 15.9817C1.39782 15.9818 1.0884 15.9637 0.780834 15.9275C2.5554 17.0685 4.62112 17.674 6.73083 17.6717C13.8725 17.6717 17.7767 11.7567 17.7767 6.62668C17.7767 6.46001 17.7725 6.29168 17.765 6.12501C18.5244 5.57583 19.1799 4.89576 19.7008 4.11668L19.7025 4.11418Z" fill="#44B3F2"/>
</svg>
